<?xml version="1.0" standalone="no"?>
<!DOCTYPE svg PUBLIC "-//W3C//DTD SVG 20010904//EN"
 "http://www.w3.org/TR/2001/REC-SVG-20010904/DTD/svg10.dtd">
<svg version="1.0" xmlns="http://www.w3.org/2000/svg"
 width="1347.000000pt" height="444.000000pt" viewBox="0 0 1347.000000 444.000000"
 preserveAspectRatio="xMidYMid meet">
<metadata>
Created by potrace 1.16, written by Peter Selinger 2001-2019
</metadata>
<g transform="translate(0.000000,444.000000) scale(0.100000,-0.100000)"
fill="#000000" stroke="none">
<path d="M6598 3840 c-503 -58 -924 -409 -1093 -913 -57 -171 -69 -255 -70
-477 0 -179 3 -218 23 -309 102 -456 382 -828 767 -1020 169 -84 302 -114 510
-114 222 0 405 43 600 141 98 49 205 118 205 132 0 10 -148 194 -160 198 -4 2
-36 -17 -71 -41 -171 -119 -344 -172 -559 -171 -159 1 -267 26 -405 94 -413
204 -677 705 -626 1189 46 440 263 780 606 947 137 66 240 88 415 88 223 -1
364 -42 533 -155 l88 -59 77 106 c42 58 78 108 79 112 3 10 -101 84 -177 125
-87 47 -224 94 -328 112 -108 19 -314 26 -414 15z"/>
<path d="M8310 2430 l0 -1400 145 0 145 0 0 645 0 645 533 0 532 0 73 113 c39
62 72 116 72 120 0 4 -272 7 -605 7 l-605 0 0 510 0 510 624 0 624 0 76 118
c42 66 76 122 76 125 0 4 -380 7 -845 7 l-845 0 0 -1400z"/>
<path d="M10630 2430 l0 -1400 140 0 140 0 2 1181 3 1180 447 -558 c246 -307
453 -565 461 -573 7 -8 32 -39 56 -67 l43 -53 87 0 87 0 499 622 500 621 3
-1176 2 -1177 145 0 145 0 0 1400 0 1400 -137 -1 -138 0 -555 -695 c-425 -533
-557 -692 -565 -681 -5 7 -255 320 -554 695 l-544 682 -134 0 -133 0 0 -1400z"/>
<path d="M3665 3036 c-96 -25 -156 -59 -230 -133 -217 -214 -164 -601 103
-755 26 -15 52 -30 57 -35 6 -4 15 -8 20 -8 6 0 43 -7 84 -15 324 -61 615 224
562 551 -45 280 -323 464 -596 395z"/>
<path d="M1219 2545 c-625 -130 -1059 -511 -1163 -1021 -18 -86 -36 -323 -25
-330 3 -2 9 -34 12 -72 15 -156 105 -383 205 -515 29 -37 52 -71 53 -75 1 -12
153 -142 216 -184 375 -256 959 -318 1448 -153 125 42 349 154 472 237 137 92
272 199 273 216 0 17 -25 15 -68 -7 -107 -54 -239 -82 -382 -82 -227 0 -426
74 -636 237 -354 274 -576 789 -525 1214 27 219 85 357 201 472 43 42 75 79
72 82 -8 9 -28 7 -153 -19z"/>
<path d="M5562 573 c-66 -32 -112 -109 -112 -187 0 -88 69 -184 149 -206 61
-16 135 3 179 46 39 38 40 51 7 66 -22 10 -27 8 -45 -14 -89 -113 -261 2 -220
148 29 104 137 139 211 68 23 -22 30 -24 48 -15 12 7 21 17 21 24 0 18 -50 64
-83 76 -41 16 -117 13 -155 -6z"/>
<path d="M7820 385 l0 -205 30 0 30 0 0 90 0 90 90 0 c89 0 90 0 90 25 0 25
-1 25 -90 25 l-90 0 0 60 0 60 105 0 105 0 0 30 0 30 -135 0 -135 0 0 -205z"/>
<path d="M11510 385 l0 -205 30 0 29 0 3 143 3 142 60 -107 c45 -82 65 -108
80 -108 16 0 35 26 80 108 l60 107 3 -142 3 -143 29 0 30 0 0 205 0 205 -32 0
c-32 0 -36 -5 -102 -126 -48 -88 -71 -122 -77 -112 -5 7 -37 64 -71 125 -60
108 -64 113 -95 113 l-33 0 0 -205z"/>
<path d="M9520 530 c0 -43 -3 -50 -20 -50 -15 0 -20 -7 -20 -25 0 -18 5 -25
20 -25 19 0 20 -7 20 -114 0 -79 4 -117 13 -124 22 -19 65 -24 100 -13 29 10
33 15 29 36 -4 21 -9 24 -41 22 l-36 -2 -3 98 -3 97 31 0 c25 0 30 4 30 25 0
21 -5 25 -30 25 -29 0 -30 1 -30 50 0 49 -1 50 -30 50 -29 0 -30 -1 -30 -50z"/>
<path d="M12340 530 c0 -43 -3 -50 -20 -50 -15 0 -20 -7 -20 -25 0 -18 5 -25
20 -25 19 0 20 -7 20 -106 0 -58 4 -114 10 -124 13 -25 62 -34 106 -20 25 8
34 16 30 27 -3 8 -6 19 -6 24 0 4 -17 7 -37 6 l-38 -2 -3 98 -3 97 36 0 c31 0
35 3 35 25 0 22 -4 25 -35 25 l-35 0 0 50 c0 49 -1 50 -30 50 -29 0 -30 -1
-30 -50z"/>
<path d="M5893 470 c-45 -20 -49 -26 -33 -50 8 -12 14 -12 45 3 20 9 49 17 65
17 32 0 70 -33 70 -62 0 -16 -9 -18 -67 -18 -83 0 -128 -23 -138 -70 -21 -93
82 -151 178 -100 20 11 37 16 37 10 0 -14 37 -31 54 -24 17 7 22 54 6 54 -6 0
-10 35 -10 85 0 102 -16 140 -65 161 -47 19 -92 17 -142 -6z"/>
<path d="M6268 472 c-30 -16 -38 -17 -38 -6 0 9 -11 14 -30 14 l-30 0 0 -150
0 -150 30 0 30 0 0 94 c0 87 2 97 26 126 21 24 33 30 58 28 44 -4 56 -35 56
-150 l0 -98 30 0 30 0 0 94 c0 87 2 97 26 126 21 25 33 30 58 28 41 -4 55 -44
55 -160 l1 -88 31 0 31 0 -4 118 c-3 64 -11 129 -18 144 -26 54 -117 62 -165
14 l-23 -23 -19 24 c-25 34 -86 41 -135 15z"/>
<path d="M6788 472 c-30 -16 -38 -17 -38 -6 0 9 -11 14 -30 14 l-30 0 0 -210
0 -210 30 0 30 0 0 80 0 79 36 -24 c95 -65 205 5 206 129 1 123 -105 199 -204
148z m113 -71 c69 -69 4 -199 -84 -169 -38 14 -67 54 -67 95 0 95 87 137 151
74z"/>
<path d="M7435 476 c-42 -18 -57 -40 -57 -81 0 -48 14 -62 81 -81 60 -17 101
-39 101 -54 0 -41 -84 -53 -139 -19 -33 20 -35 20 -48 3 -19 -26 -17 -32 18
-49 76 -40 187 -27 214 25 33 64 10 102 -82 130 -93 29 -108 43 -77 74 20 20
67 20 106 0 27 -14 32 -14 46 0 21 20 3 42 -47 56 -47 13 -79 12 -116 -4z"/>
<path d="M8195 476 c-43 -19 -82 -68 -90 -115 -23 -136 112 -235 229 -168 73
42 97 137 55 218 -33 66 -123 96 -194 65z m106 -56 c23 -13 49 -61 49 -92 0
-35 -35 -84 -67 -96 -43 -14 -90 8 -108 52 -37 89 46 178 126 136z"/>
<path d="M8580 479 c-13 -6 -33 -17 -42 -26 -17 -15 -18 -15 -18 5 0 18 -6 22
-30 22 l-30 0 0 -150 0 -150 30 0 30 0 0 94 c0 87 2 95 26 119 14 14 39 29 55
32 25 6 30 11 27 33 -4 30 -14 34 -48 21z"/>
<path d="M8780 479 c-13 -6 -33 -17 -42 -26 -17 -15 -18 -15 -18 5 0 17 -6 22
-25 22 l-25 0 0 -150 0 -150 30 0 30 0 0 98 c0 95 1 99 28 125 35 34 77 36 93
5 7 -13 15 -69 17 -125 l5 -103 28 0 29 0 0 100 c0 94 2 103 25 125 28 28 66
32 89 9 13 -12 16 -39 16 -125 l0 -109 30 0 30 0 0 126 0 126 -30 30 c-27 27
-36 30 -72 25 -23 -3 -55 -16 -71 -28 -21 -15 -32 -19 -35 -11 -5 17 -57 42
-84 41 -13 0 -34 -5 -48 -10z"/>
<path d="M9241 477 c-41 -16 -61 -41 -45 -57 7 -7 21 -6 47 5 67 28 118 11
131 -45 l5 -25 -73 3 c-67 3 -75 1 -104 -23 -26 -22 -32 -34 -32 -65 0 -82 89
-125 172 -82 35 18 37 18 52 0 17 -20 25 -22 43 -10 14 9 1 218 -16 249 -28
53 -111 76 -180 50z"/>
<path d="M9905 476 c-43 -19 -82 -68 -90 -115 -23 -136 112 -235 229 -168 73
42 97 137 55 218 -33 66 -123 96 -194 65z m106 -56 c22 -13 49 -61 49 -90 0
-91 -117 -137 -164 -65 -58 88 26 202 115 155z"/>
<path d="M10290 479 c-13 -6 -33 -17 -42 -26 -17 -15 -18 -15 -18 5 0 18 -6
22 -30 22 l-30 0 0 -150 0 -150 30 0 30 0 0 85 c0 99 14 136 59 154 69 29 91
-4 91 -141 l0 -98 30 0 30 0 0 110 c0 119 -13 170 -48 189 -25 13 -68 13 -102
0z"/>
<path d="M10564 483 c-54 -11 -89 -96 -55 -137 7 -9 44 -25 81 -36 82 -24 101
-42 75 -70 -24 -26 -80 -26 -124 1 -33 20 -35 20 -48 3 -19 -26 -17 -32 18
-50 79 -40 192 -24 218 32 27 61 3 96 -86 124 -93 29 -108 43 -77 74 20 20 67
20 106 0 27 -14 32 -14 46 0 38 38 -63 77 -154 59z"/>
<path d="M12065 476 c-102 -46 -124 -191 -40 -265 59 -51 147 -54 205 -5 35
30 38 49 8 57 -14 4 -31 -2 -50 -19 -40 -33 -82 -31 -119 5 -54 54 -44 61 91
61 l120 0 0 30 c0 46 -24 94 -60 120 -39 28 -113 36 -155 16z"/>
<path d="M12745 483 c-32 -8 -74 -42 -90 -73 -19 -37 -19 -123 0 -160 31 -59
98 -89 170 -76 37 7 95 50 95 71 0 18 -43 27 -55 11 -34 -45 -97 -47 -136 -5
-51 54 -43 59 91 59 l120 0 0 39 c0 93 -96 159 -195 134z"/>
<path d="M13115 483 c-11 -3 -30 -14 -42 -26 l-23 -20 0 21 c0 18 -6 22 -30
22 l-30 0 0 -150 0 -150 30 0 30 0 0 93 c0 108 11 130 71 148 34 11 40 16 37
37 -3 27 -12 32 -43 25z"/>
<path d="M13255 483 c-31 -8 -63 -42 -70 -75 -11 -47 15 -74 94 -98 83 -24
102 -42 76 -70 -23 -26 -74 -26 -125 0 l-39 20 -12 -22 c-14 -26 4 -43 66 -59
87 -24 166 8 180 73 10 43 -15 73 -77 93 -115 36 -126 46 -92 79 20 20 67 20
106 0 28 -14 32 -14 46 0 14 14 14 18 2 30 -31 29 -101 42 -155 29z"/>
<path d="M7042 358 c3 -83 9 -130 18 -145 31 -48 115 -55 171 -14 27 20 27 20
32 1 4 -15 14 -20 36 -20 26 0 31 4 31 24 0 14 -4 28 -10 31 -6 4 -10 57 -10
126 l0 119 -30 0 -30 0 0 -100 c0 -96 -1 -102 -26 -125 -31 -29 -85 -33 -105
-9 -9 11 -15 53 -17 125 l-4 109 -30 0 -30 0 4 -122z"/>
<path d="M9700 330 l0 -150 30 0 30 0 0 150 0 150 -30 0 -30 0 0 -150z"/>
<path d="M12520 330 l0 -150 30 0 30 0 0 150 0 150 -30 0 -30 0 0 -150z"/>
<path d="M10974 416 c-89 -39 -109 -163 -34 -216 58 -41 181 -32 220 16 11 12
6 14 -28 14 -89 0 -142 91 -106 184 8 20 -10 20 -52 2z"/>
</g>
</svg>
